<svg version="1.0" xmlns="http://www.w3.org/2000/svg" width="2081.333" height="2324" viewBox="0 0 1561 1743"><path d="M218.9 212.3c3.3 4 48.7 57.8 101 119.7l94.9 112.5-101 .3c-80.1.2-100.9.5-100.5 1.5.2.6 46.2 129 102.2 285.2s102.6 286.4 103.7 289.2l1.9 5.3h479l-9.6-11.4c-5.2-6.2-9.5-11.9-9.5-12.5 0-.8 40-1.1 150.4-1.1 119.3 0 150.6-.3 151.3-1.3.4-.6 17.3-40.4 37.5-88.2l36.7-87-263.7-.3-263.7-.3-10.3-12.5-10.3-12.4h558.7l35.5-84.3 35.5-84.2-385.7-.5-385.6-.5-10-12-10.1-12 178.7-.5 178.7-.5-323-186.5C404 315.4 248.4 225.6 235.8 218.3l-22.9-13.2 6 7.2zM1067.3 1056.4c-38.5 7.4-65.3 35.8-69.5 73.9-3.9 34.6 16 69.4 48 83.9 19.4 8.8 40.5 9.8 61.2 2.9 25.2-8.5 43.7-27.4 52.6-53.6 3.8-11.5 4.5-31.2 1.6-43.6-7.3-30.6-30.5-54.2-61-62-10.1-2.5-23.9-3.2-32.9-1.5zM479 1058c-34.4 9.3-58.3 37-62.2 72.3-3.9 34.6 16 69.4 48 83.9 19.4 8.8 40.5 9.8 61.2 2.9 25.2-8.5 43.7-27.4 52.6-53.6 3.9-11.6 4.5-31.2 1.5-44-6.8-28.4-27.3-50.6-55.6-60.1-6.9-2.3-10-2.7-23-3-12.7-.4-16.2-.1-22.5 1.6zM576.5 1350c-22.5 4.1-36.5 16.8-42.2 38.2-2.1 8-2.4 28.1-.4 35.8 2.9 11.7 9.9 21.7 20.1 28.9 4 2.8 13.3 7.5 21.7 11.1 22.2 9.4 27.3 13.7 27.3 23.1 0 9.6-7.9 15.5-15.1 11.3-4-2.3-5.8-6.6-5.8-14-.1-8.4-.1-8.4-26.3-8.4-27.8 0-26.4-.8-25.5 13.9 1.5 21.5 9.3 34.6 25.2 42 10.2 4.8 15.2 5.6 37 5.6 18.2 0 20.7-.2 27.5-2.3 19-6 29-15.2 34.5-31.6 5.2-15.6 4.4-36.1-2-49.2-7-14.4-16.7-22-41-32.2-8.3-3.5-17.2-7.9-19.8-9.8-7.7-5.6-9.9-13.9-5.4-20.5 2.1-3.1 2.7-3.4 7.1-3.4 6.5 0 8.8 2.9 9.4 11.7.7 10.1-.2 9.8 26.2 9.8 19.2 0 23-.2 24-1.5 1.6-1.9.7-15.1-1.6-23.9-4.4-17.1-15.6-28.3-32.9-33.1-7-1.9-34.2-2.9-42-1.5zM937.5 1349.7c-27.9 4.4-42.6 20.2-48.1 51.6-3.7 21.4-3.6 65.9.1 87.2 6.3 35.9 23.5 49.5 62.6 49.5 22.3 0 33.9-3.9 45-14.9 11.7-11.7 15.8-23.3 16.6-46.9.5-13.7.4-15.4-1.2-17.2-1.7-1.9-3.2-2-24.5-2-20.4 0-22.8.2-24.2 1.7-1.2 1.4-1.7 5.2-2.1 16.3-.5 15.2-1.6 20.3-4.9 23.2-4.3 3.8-10.5.7-12.7-6.2-2.3-6.8-3.4-30.2-2.8-59 .8-37.6 2.5-45 10.5-45 4.7 0 5.8.7 7.7 5.3 1 2.5 1.5 7 1.5 15 0 9.8.3 11.6 1.8 13 1.6 1.5 4.9 1.7 24.9 1.7 19.3 0 23.3-.2 24.3-1.5 1.8-2.1.7-27.1-1.4-34.8-5-18.3-16-29.4-34.6-35.2-5.5-1.7-31.6-3-38.5-1.8zM682.7 1441.7c-20.4 84.4-21.6 89.7-20 91.5 1.5 1.7 3.4 1.8 28.2 1.6l26.6-.3 2.2-14.5c1.2-8 2.2-14.8 2.2-15.3.1-.4 6.6-.7 14.5-.7h14.4l.5 2.7c.3 1.6 1.3 8.5 2.3 15.5l1.8 12.8h26.7c24.3 0 26.7-.2 28.2-1.8 1.5-1.7.1-8-20.1-91.2l-21.7-89.5-32-.3-32-.2-21.8 89.7zm61.2 19c.1 2.2-.3 2.3-7.9 2.3-7.8 0-8-.1-7.5-2.3.4-1.8 7.3-42.6 7.6-45.4.2-1.2 7.8 42.9 7.8 45.4zM819.2 1353.2c-1.7 1.7-1.7 178.9 0 180.6 1.7 1.7 48.9 1.7 50.6 0 1.7-1.7 1.7-178.9 0-180.6-1.7-1.7-48.9-1.7-50.6 0z"/></svg>
